<svg xmlns="http://www.w3.org/2000/svg" xmlns:xlink="http://www.w3.org/1999/xlink" width="500" zoomAndPan="magnify" viewBox="0 0 375 374.999991" height="500" preserveAspectRatio="xMidYMid meet" version="1.0"><defs><clipPath id="000a1ba9ff"><path d="M 16.070312 37.5 L 358.820312 37.5 L 358.820312 337.5 L 16.070312 337.5 Z M 16.070312 37.5 " clip-rule="nonzero"/></clipPath><clipPath id="ae8eaa74ed"><path d="M 187.5 37.5 L 358.925781 337.5 L 16.070312 337.5 Z M 187.5 37.5 " clip-rule="nonzero"/></clipPath><clipPath id="0ebf431dc3"><path d="M 150.34375 154.988281 L 358.84375 154.988281 L 358.84375 337.238281 L 150.34375 337.238281 Z M 150.34375 154.988281 " clip-rule="nonzero"/></clipPath><clipPath id="7ed669caa1"><path d="M 254.636719 154.988281 L 358.925781 337.496094 L 150.34375 337.496094 Z M 254.636719 154.988281 " clip-rule="nonzero"/></clipPath></defs><g clip-path="url(#000a1ba9ff)"><g clip-path="url(#ae8eaa74ed)"><path stroke-linecap="butt" transform="matrix(0.75, 0, 0, 0.75, 16.071432, 37.50073)" fill="none" stroke-linejoin="miter" d="M 228.571439 -0.000973357 L 457.139162 399.999053 L -0.0014931 399.999053 Z M 228.571439 -0.000973357 " stroke="#ffffff" stroke-width="108" stroke-opacity="1" stroke-miterlimit="4"/></g></g><g clip-path="url(#0ebf431dc3)"><g clip-path="url(#7ed669caa1)"><path stroke-linecap="butt" transform="matrix(0.75, 0, 0, 0.75, 150.344759, 154.988443)" fill="none" stroke-linejoin="miter" d="M 139.055946 -0.000215163 L 278.10803 243.343535 L -0.0013459 243.343535 Z M 139.055946 -0.000215163 " stroke="#ffffff" stroke-width="108" stroke-opacity="1" stroke-miterlimit="4"/></g></g></svg>